<svg xmlns="http://www.w3.org/2000/svg" viewBox="0 0 720 640" role="img" aria-label="Certification alignment workflow">
  <rect width="720" height="640" fill="#0b1f33"/>
  <circle cx="620" cy="80" r="120" fill="#049FD9" opacity="0.07"/>
  <circle cx="90" cy="560" r="130" fill="#6CC04A" opacity="0.06"/>
  <g id="viz-main">
    <rect x="24" y="24" width="672" height="592" rx="24" fill="#0b1728" stroke="#203a56" stroke-width="1.5"/>
    
    <line id="viz-exam-line" x1="120" y1="180" x2="600" y2="180" stroke="#049FD9" stroke-width="3" stroke-linecap="round"/>
    <g id="viz-exam-1">
    <circle cx="160" cy="180" r="34" fill="#082f49" stroke="#12b5e5" stroke-width="3"/>
    <path d="M20 20h24M32 12v24" fill="none" stroke="#f8fafc" stroke-width="2.5" stroke-linecap="round" transform="translate(140 160)"/>
    <text x="160" y="236" fill="#f8fafc" font-family="Inter,Segoe UI,Arial,sans-serif" font-size="13" font-weight="700" text-anchor="middle">Learn</text>
  </g>
    <g id="viz-exam-2">
    <circle cx="360" cy="180" r="34" fill="#163119" stroke="#6CC04A" stroke-width="3"/>
    <path d="M16 24l8 8 16-18" fill="none" stroke="#f8fafc" stroke-width="2.5" stroke-linecap="round" transform="translate(340 160)"/>
    <text x="360" y="236" fill="#f8fafc" font-family="Inter,Segoe UI,Arial,sans-serif" font-size="13" font-weight="700" text-anchor="middle">Lab</text>
  </g>
    <g id="viz-exam-3">
    <circle cx="560" cy="180" r="34" fill="#3a2508" stroke="#f59e0b" stroke-width="3"/>
    <path d="M22 53L34 27l12 26H22z" fill="none" stroke="#f8fafc" stroke-width="2.5" stroke-linecap="round" transform="translate(540 160)"/>
    <text x="560" y="236" fill="#f8fafc" font-family="Inter,Segoe UI,Arial,sans-serif" font-size="13" font-weight="700" text-anchor="middle">Exam</text>
  </g>
    <g id="viz-badge">
      <rect x="240" y="280" width="240" height="100" rx="18" fill="#0b2237" stroke="#12b5e5" stroke-width="2"/>
      <text x="360" y="320" fill="#12b5e5" font-family="Inter,Segoe UI,Arial,sans-serif" font-size="14" font-weight="900" text-anchor="middle">CCNP AUTOMATION</text>
      <text x="360" y="348" fill="#9fb3c8" font-family="Inter,Segoe UI,Arial,sans-serif" font-size="12" text-anchor="middle">Objective mapped to lab</text>
    </g>
  
  </g>
</svg>
