<svg xmlns="http://www.w3.org/2000/svg" viewBox="0 0 720 640" role="img" aria-label="Lists vs dictionaries for network data">
  <rect width="720" height="640" fill="#0b1f33"/>
  <circle cx="620" cy="80" r="120" fill="#049FD9" opacity="0.07"/>
  <circle cx="90" cy="560" r="130" fill="#6CC04A" opacity="0.06"/>
  <g id="viz-main">
    <rect x="24" y="24" width="672" height="592" rx="24" fill="#0b1728" stroke="#203a56" stroke-width="1.5"/>
    
    <g id="viz-list">
      <text x="180" y="95" fill="#12b5e5" font-family="Inter,Segoe UI,Arial,sans-serif" font-size="13" font-weight="800" text-anchor="middle">List — ordered commands</text>
      <rect x="80" y="110" width="200" height="36" rx="8" fill="#0b2237" stroke="#12b5e5" stroke-width="1.5"/>
      <text x="100" y="133" fill="#f8fafc" font-family="monospace" font-size="12">[0] vlan 100</text>
      <rect x="80" y="152" width="200" height="36" rx="8" fill="#0b2237" stroke="#12b5e5" stroke-width="1.5"/>
      <text x="100" y="175" fill="#f8fafc" font-family="monospace" font-size="12">[1] name DATA_VLAN</text>
      <rect x="80" y="194" width="200" height="36" rx="8" fill="#0b2237" stroke="#12b5e5" stroke-width="1.5"/>
      <text x="100" y="217" fill="#f8fafc" font-family="monospace" font-size="12">[2] exit</text>
    </g>
    <line x1="336" y1="100" x2="336" y2="280" stroke="#35536f" stroke-width="1"/>
    <g id="viz-dict">
      <text x="500" y="95" fill="#6CC04A" font-family="Inter,Segoe UI,Arial,sans-serif" font-size="13" font-weight="800" text-anchor="middle">Dict — device profile</text>
      <rect x="400" y="120" width="200" height="32" rx="8" fill="#112115" stroke="#6CC04A" stroke-width="1.5"/>
      <text x="420" y="141" fill="#6CC04A" font-family="monospace" font-size="11">host: 192.168.1.10</text>
      <rect x="400" y="158" width="200" height="32" rx="8" fill="#112115" stroke="#6CC04A" stroke-width="1.5"/>
      <text x="420" y="179" fill="#6CC04A" font-family="monospace" font-size="11">device_type: cisco_ios</text>
      <rect x="400" y="196" width="200" height="32" rx="8" fill="#112115" stroke="#6CC04A" stroke-width="1.5"/>
      <text x="420" y="217" fill="#6CC04A" font-family="monospace" font-size="11">username: admin</text>
      <text x="500" y="260" fill="#64748b" font-family="Inter,Segoe UI,Arial,sans-serif" font-size="11" text-anchor="middle">Netmiko expects this shape</text>
    </g>
    <text x="336" y="310" fill="#ef4444" font-family="Inter,Segoe UI,Arial,sans-serif" font-size="12" text-anchor="middle">Wrong shape → silent failures</text>
  </g>
</svg>
