<svg xmlns="http://www.w3.org/2000/svg" viewBox="0 0 720 640" role="img" aria-label="Today's automation targets">
  <rect width="720" height="640" fill="#0b1f33"/>
  <circle cx="620" cy="80" r="120" fill="#049FD9" opacity="0.07"/>
  <circle cx="90" cy="560" r="130" fill="#6CC04A" opacity="0.06"/>
  <g id="viz-main">
    <rect x="24" y="24" width="672" height="592" rx="24" fill="#0b1728" stroke="#203a56" stroke-width="1.5"/>
    
    <g id="viz-switch">
    <rect x="296" y="232" width="80" height="56" rx="10" fill="#081827" stroke="#12b5e5" stroke-width="2"/>
    <path d="M316 272h40M336 252v40" stroke="#12b5e5" stroke-width="2" stroke-linecap="round"/>
    <text x="336" y="304" fill="#9fb3c8" font-family="Inter,Segoe UI,Arial,sans-serif" font-size="11" text-anchor="middle">Lab SW</text>
  </g>
    <g id="viz-vlan">
      <rect x="80" y="120" width="100" height="56" rx="10" fill="#081827" stroke="#12b5e5" stroke-width="2"/>
      <text x="130" y="152" fill="#12b5e5" font-family="Inter,Segoe UI,Arial,sans-serif" font-size="12" font-weight="700" text-anchor="middle">VLAN 100</text>
      <line x1="180" y1="148" x2="296" y2="230" stroke="#12b5e5" stroke-width="3" stroke-linecap="round"/>
    </g>
    <g id="viz-intf">
      <rect x="540" y="120" width="100" height="56" rx="10" fill="#081827" stroke="#6CC04A" stroke-width="2"/>
      <text x="590" y="148" fill="#6CC04A" font-family="Inter,Segoe UI,Arial,sans-serif" font-size="11" font-weight="700" text-anchor="middle">Access port</text>
      <line x1="540" y1="148" x2="376" y2="230" stroke="#6CC04A" stroke-width="3" stroke-linecap="round"/>
    </g>
    <g id="viz-ospf">
      <rect x="80" y="340" width="100" height="56" rx="10" fill="#081827" stroke="#f59e0b" stroke-width="2"/>
      <text x="130" y="372" fill="#f59e0b" font-family="Inter,Segoe UI,Arial,sans-serif" font-size="12" font-weight="700" text-anchor="middle">OSPF</text>
      <line x1="180" y1="368" x2="296" y2="290" stroke="#f59e0b" stroke-width="3" stroke-linecap="round"/>
    </g>
    <g id="viz-acl">
      <rect x="540" y="340" width="100" height="56" rx="10" fill="#081827" stroke="#ef4444" stroke-width="2"/>
      <text x="590" y="372" fill="#ef4444" font-family="Inter,Segoe UI,Arial,sans-serif" font-size="12" font-weight="700" text-anchor="middle">ACL</text>
      <line x1="540" y1="368" x2="376" y2="290" stroke="#ef4444" stroke-width="3" stroke-linecap="round"/>
    </g>
    <g id="viz-script">
    <rect x="248" y="388" width="176" height="88" rx="12" fill="#2a1f08" stroke="#f59e0b" stroke-width="2"/>
    <text x="336" y="414" fill="#f59e0b" font-family="monospace" font-size="11" font-weight="700" text-anchor="middle">lab_config.py</text>
    <text x="336" y="432" fill="#9fb3c8" font-family="monospace" font-size="9" text-anchor="middle">import netmiko</text>
    <text x="336" y="448" fill="#9fb3c8" font-family="monospace" font-size="9" text-anchor="middle">send_config_set()</text>
  </g>
    <line x1="336" y1="388" x2="336" y2="316" stroke="#f59e0b" stroke-width="3" stroke-linecap="round"/>
  </g>
</svg>
