<svg xmlns="http://www.w3.org/2000/svg" viewBox="0 0 720 640" role="img" aria-label="Python at the center of network automation">
  <rect width="720" height="640" fill="#0b1f33"/>
  <circle cx="620" cy="80" r="120" fill="#049FD9" opacity="0.07"/>
  <circle cx="90" cy="560" r="130" fill="#6CC04A" opacity="0.06"/>
  <g id="viz-main">
    <rect x="24" y="24" width="672" height="592" rx="24" fill="#0b1728" stroke="#203a56" stroke-width="1.5"/>
    
    <g id="viz-python">
      <rect x="276" y="200" width="120" height="100" rx="16" fill="#2a1f08" stroke="#f59e0b" stroke-width="2"/>
      <text x="336" y="248" fill="#f59e0b" font-family="monospace" font-size="22" font-weight="900" text-anchor="middle">Python</text>
      <text x="336" y="272" fill="#9fb3c8" font-family="Inter,Segoe UI,Arial,sans-serif" font-size="11" text-anchor="middle">read · change · debug</text>
    </g>
    <line x1="336" y1="200" x2="336" y2="130" stroke="#f59e0b" stroke-width="3" stroke-linecap="round"/>
    <g id="viz-ansible">
    <rect x="270" y="80" width="132" height="50" rx="14" fill="#081827" stroke="#6CC04A" stroke-width="2"/>
    <text x="336" y="110" fill="#6CC04A" font-family="Inter,Segoe UI,Arial,sans-serif" font-size="14" font-weight="700" text-anchor="middle">Ansible modules</text>
  </g>
    <line x1="396" y1="250" x2="470" y2="200" stroke="#12b5e5" stroke-width="3" stroke-linecap="round"/>
    <g id="viz-netmiko">
    <rect x="470" y="170" width="120" height="60" rx="14" fill="#081827" stroke="#12b5e5" stroke-width="2"/>
    <text x="530" y="205" fill="#12b5e5" font-family="Inter,Segoe UI,Arial,sans-serif" font-size="14" font-weight="700" text-anchor="middle">Netmiko</text>
  </g>
    <line x1="276" y1="250" x2="200" y2="200" stroke="#a78bfa" stroke-width="3" stroke-linecap="round"/>
    <g id="viz-api">
    <rect x="80" y="170" width="120" height="60" rx="14" fill="#081827" stroke="#a78bfa" stroke-width="2"/>
    <text x="140" y="205" fill="#a78bfa" font-family="Inter,Segoe UI,Arial,sans-serif" font-size="14" font-weight="700" text-anchor="middle">REST APIs</text>
  </g>
    <line x1="336" y1="300" x2="336" y2="370" stroke="#12b5e5" stroke-width="3" stroke-linecap="round"/>
    <g id="viz-switch">
    <rect x="296" y="392" width="80" height="56" rx="10" fill="#081827" stroke="#12b5e5" stroke-width="2"/>
    <path d="M316 432h40M336 412v40" stroke="#12b5e5" stroke-width="2" stroke-linecap="round"/>
    <text x="336" y="464" fill="#9fb3c8" font-family="Inter,Segoe UI,Arial,sans-serif" font-size="11" text-anchor="middle">Lab SW</text>
  </g>
    <text x="336" y="500" fill="#64748b" font-family="Inter,Segoe UI,Arial,sans-serif" font-size="12" text-anchor="middle">One language — many automation paths</text>
  </g>
</svg>
