<svg xmlns="http://www.w3.org/2000/svg" viewBox="0 0 720 640" role="img" aria-label="Manual CLI scale stress">
  <rect width="720" height="640" fill="#0b1f33"/>
  <circle cx="620" cy="80" r="120" fill="#049FD9" opacity="0.07"/>
  <circle cx="90" cy="560" r="130" fill="#6CC04A" opacity="0.06"/>
  <g id="viz-main">
    <rect x="24" y="24" width="672" height="592" rx="24" fill="#0b1728" stroke="#203a56" stroke-width="1.5"/>
    
    <g id="viz-devices">
      <rect x="100" y="100" width="52" height="38" rx="8" fill="#081827" stroke="#ef4444" stroke-width="2"/>
        <text x="126" y="154" fill="#9fb3c8" font-family="Inter,Segoe UI,Arial,sans-serif" font-size="10" text-anchor="middle">SW1</text><rect x="172" y="100" width="52" height="38" rx="8" fill="#081827" stroke="#ef4444" stroke-width="2"/>
        <text x="198" y="154" fill="#9fb3c8" font-family="Inter,Segoe UI,Arial,sans-serif" font-size="10" text-anchor="middle">SW2</text><rect x="244" y="100" width="52" height="38" rx="8" fill="#081827" stroke="#ef4444" stroke-width="2"/>
        <text x="270" y="154" fill="#9fb3c8" font-family="Inter,Segoe UI,Arial,sans-serif" font-size="10" text-anchor="middle">SW3</text><rect x="100" y="164" width="52" height="38" rx="8" fill="#081827" stroke="#f59e0b" stroke-width="2"/>
        <text x="126" y="218" fill="#9fb3c8" font-family="Inter,Segoe UI,Arial,sans-serif" font-size="10" text-anchor="middle">SW4</text><rect x="172" y="164" width="52" height="38" rx="8" fill="#081827" stroke="#f59e0b" stroke-width="2"/>
        <text x="198" y="218" fill="#9fb3c8" font-family="Inter,Segoe UI,Arial,sans-serif" font-size="10" text-anchor="middle">SW5</text><rect x="244" y="164" width="52" height="38" rx="8" fill="#081827" stroke="#f59e0b" stroke-width="2"/>
        <text x="270" y="218" fill="#9fb3c8" font-family="Inter,Segoe UI,Arial,sans-serif" font-size="10" text-anchor="middle">SW6</text>
    </g>
    <g id="viz-engineer">
      <rect x="430" y="200" width="110" height="80" rx="12" fill="#0b2237" stroke="#12b5e5" stroke-width="2"/>
      <circle cx="485" cy="228" r="14" fill="#082f49" stroke="#12b5e5" stroke-width="2"/>
      <text x="485" y="300" fill="#9fb3c8" font-family="Inter,Segoe UI,Arial,sans-serif" font-size="12" text-anchor="middle">One engineer</text>
    </g>
    <g id="viz-stress">
      <path d="M320 180 Q380 120 440 180" fill="none" stroke="#ef4444" stroke-width="2" stroke-dasharray="6 5"/>
      <path d="M320 220 Q380 280 440 220" fill="none" stroke="#ef4444" stroke-width="2" stroke-dasharray="6 5"/>
      <text x="380" y="90" fill="#ef4444" font-family="Inter,Segoe UI,Arial,sans-serif" font-size="13" font-weight="800" text-anchor="middle">Same change on every switch</text>
    </g>
  </g>
</svg>
