<?xml version="1.0" encoding="UTF-8"?>
<svg xmlns="http://www.w3.org/2000/svg" viewBox="0 0 1200 550" width="1200" height="550">
  <g id="main">
    <rect width="1200" height="550" fill="#f8fafc"/>
    <text x="600" y="40" text-anchor="middle" font-family="system-ui, sans-serif" font-size="24" font-weight="600" fill="#1e293b">Enterprise Workload Matrix</text>
    <rect x="80" y="80" width="200" height="50" fill="#1e293b"/>
    <text x="180" y="112" text-anchor="middle" font-family="system-ui, sans-serif" font-size="14" font-weight="600" fill="#ffffff">Workload</text>
    <rect x="280" y="80" width="180" height="50" fill="#1e293b"/>
    <text x="370" y="112" text-anchor="middle" font-family="system-ui, sans-serif" font-size="14" font-weight="600" fill="#ffffff">Traceability</text>
    <rect x="460" y="80" width="180" height="50" fill="#1e293b"/>
    <text x="550" y="112" text-anchor="middle" font-family="system-ui, sans-serif" font-size="14" font-weight="600" fill="#ffffff">Cost Sensitivity</text>
    <rect x="640" y="80" width="180" height="50" fill="#1e293b"/>
    <text x="730" y="112" text-anchor="middle" font-family="system-ui, sans-serif" font-size="14" font-weight="600" fill="#ffffff">Latency Need</text>
    <rect x="820" y="80" width="180" height="50" fill="#1e293b"/>
    <text x="910" y="112" text-anchor="middle" font-family="system-ui, sans-serif" font-size="14" font-weight="600" fill="#ffffff">Integration</text>
    <rect x="300" y="470" width="16" height="16" rx="4" fill="#10b981"/>
    <text x="325" y="484" font-family="system-ui, sans-serif" font-size="12" fill="#475569">High</text>
    <rect x="400" y="470" width="16" height="16" rx="4" fill="#f59e0b"/>
    <text x="425" y="484" font-family="system-ui, sans-serif" font-size="12" fill="#475569">Medium</text>
    <rect x="520" y="470" width="16" height="16" rx="4" fill="#ef4444"/>
    <text x="545" y="484" font-family="system-ui, sans-serif" font-size="12" fill="#475569">Critical</text>
    <text x="600" y="520" text-anchor="middle" font-family="system-ui, sans-serif" font-size="14" fill="#64748b">All workloads require pipelines, not single calls</text>
  </g>
  <g id="section-1">
  <!-- Row: Knowledge -->
  <rect x="80" y="130" width="200" height="60" fill="#dbeafe" stroke="#e2e8f0" stroke-width="1"/>
  <text x="180" y="167" text-anchor="middle" font-family="system-ui, sans-serif" font-size="14" font-weight="600" fill="#1d4ed8">Knowledge</text>
  
  <rect x="280" y="130" width="180" height="60" fill="#ffffff" stroke="#e2e8f0" stroke-width="1"/>
  <rect x="330" y="155" width="80" height="10" rx="5" fill="#e2e8f0"/>
  <rect x="330" y="155" width="60" height="10" rx="5" fill="#10b981"/>
  
  <rect x="460" y="130" width="180" height="60" fill="#ffffff" stroke="#e2e8f0" stroke-width="1"/>
  <rect x="510" y="155" width="80" height="10" rx="5" fill="#e2e8f0"/>
  <rect x="510" y="155" width="40" height="10" rx="5" fill="#f59e0b"/>
  
  <rect x="640" y="130" width="180" height="60" fill="#ffffff" stroke="#e2e8f0" stroke-width="1"/>
  <rect x="690" y="155" width="80" height="10" rx="5" fill="#e2e8f0"/>
  <rect x="690" y="155" width="50" height="10" rx="5" fill="#f59e0b"/>
  
  <rect x="820" y="130" width="180" height="60" fill="#ffffff" stroke="#e2e8f0" stroke-width="1"/>
  <rect x="870" y="155" width="80" height="10" rx="5" fill="#e2e8f0"/>
  <rect x="870" y="155" width="70" height="10" rx="5" fill="#10b981"/>
  </g>
  <g id="section-2">
  <rect x="80" y="190" width="200" height="60" fill="#d1fae5" stroke="#e2e8f0" stroke-width="1"/>
  <text x="180" y="227" text-anchor="middle" font-family="system-ui, sans-serif" font-size="14" font-weight="600" fill="#059669">Support</text>
  
  <rect x="280" y="190" width="180" height="60" fill="#ffffff" stroke="#e2e8f0" stroke-width="1"/>
  <rect x="330" y="215" width="80" height="10" rx="5" fill="#e2e8f0"/>
  <rect x="330" y="215" width="70" height="10" rx="5" fill="#10b981"/>
  
  <rect x="460" y="190" width="180" height="60" fill="#ffffff" stroke="#e2e8f0" stroke-width="1"/>
  <rect x="510" y="215" width="80" height="10" rx="5" fill="#e2e8f0"/>
  <rect x="510" y="215" width="65" height="10" rx="5" fill="#f59e0b"/>
  
  <rect x="640" y="190" width="180" height="60" fill="#ffffff" stroke="#e2e8f0" stroke-width="1"/>
  <rect x="690" y="215" width="80" height="10" rx="5" fill="#e2e8f0"/>
  <rect x="690" y="215" width="75" height="10" rx="5" fill="#10b981"/>
  
  <rect x="820" y="190" width="180" height="60" fill="#ffffff" stroke="#e2e8f0" stroke-width="1"/>
  <rect x="870" y="215" width="80" height="10" rx="5" fill="#e2e8f0"/>
  <rect x="870" y="215" width="80" height="10" rx="5" fill="#10b981"/>
  </g>
  <g id="section-3">
  <rect x="80" y="250" width="200" height="60" fill="#fef3c7" stroke="#e2e8f0" stroke-width="1"/>
  <text x="180" y="287" text-anchor="middle" font-family="system-ui, sans-serif" font-size="14" font-weight="600" fill="#d97706">Analytics</text>
  
  <rect x="280" y="250" width="180" height="60" fill="#ffffff" stroke="#e2e8f0" stroke-width="1"/>
  <rect x="330" y="275" width="80" height="10" rx="5" fill="#e2e8f0"/>
  <rect x="330" y="275" width="55" height="10" rx="5" fill="#f59e0b"/>
  
  <rect x="460" y="250" width="180" height="60" fill="#ffffff" stroke="#e2e8f0" stroke-width="1"/>
  <rect x="510" y="275" width="80" height="10" rx="5" fill="#e2e8f0"/>
  <rect x="510" y="275" width="70" height="10" rx="5" fill="#ef4444"/>
  
  <rect x="640" y="250" width="180" height="60" fill="#ffffff" stroke="#e2e8f0" stroke-width="1"/>
  <rect x="690" y="275" width="80" height="10" rx="5" fill="#e2e8f0"/>
  <rect x="690" y="275" width="30" height="10" rx="5" fill="#10b981"/>
  
  <rect x="820" y="250" width="180" height="60" fill="#ffffff" stroke="#e2e8f0" stroke-width="1"/>
  <rect x="870" y="275" width="80" height="10" rx="5" fill="#e2e8f0"/>
  <rect x="870" y="275" width="60" height="10" rx="5" fill="#f59e0b"/>
  </g>
  <g id="section-4">
  <rect x="80" y="310" width="200" height="60" fill="#e9d5ff" stroke="#e2e8f0" stroke-width="1"/>
  <text x="180" y="347" text-anchor="middle" font-family="system-ui, sans-serif" font-size="14" font-weight="600" fill="#7c3aed">Documents</text>
  
  <rect x="280" y="310" width="180" height="60" fill="#ffffff" stroke="#e2e8f0" stroke-width="1"/>
  <rect x="330" y="335" width="80" height="10" rx="5" fill="#e2e8f0"/>
  <rect x="330" y="335" width="80" height="10" rx="5" fill="#10b981"/>
  
  <rect x="460" y="310" width="180" height="60" fill="#ffffff" stroke="#e2e8f0" stroke-width="1"/>
  <rect x="510" y="335" width="80" height="10" rx="5" fill="#e2e8f0"/>
  <rect x="510" y="335" width="50" height="10" rx="5" fill="#f59e0b"/>
  
  <rect x="640" y="310" width="180" height="60" fill="#ffffff" stroke="#e2e8f0" stroke-width="1"/>
  <rect x="690" y="335" width="80" height="10" rx="5" fill="#e2e8f0"/>
  <rect x="690" y="335" width="45" height="10" rx="5" fill="#f59e0b"/>
  
  <rect x="820" y="310" width="180" height="60" fill="#ffffff" stroke="#e2e8f0" stroke-width="1"/>
  <rect x="870" y="335" width="80" height="10" rx="5" fill="#e2e8f0"/>
  <rect x="870" y="335" width="75" height="10" rx="5" fill="#10b981"/>
  
  <!-- Row: Research -->
  <rect x="80" y="370" width="200" height="60" fill="#cffafe" stroke="#e2e8f0" stroke-width="1"/>
  <text x="180" y="407" text-anchor="middle" font-family="system-ui, sans-serif" font-size="14" font-weight="600" fill="#0891b2">Research</text>
  
  <rect x="280" y="370" width="180" height="60" fill="#ffffff" stroke="#e2e8f0" stroke-width="1"/>
  <rect x="330" y="395" width="80" height="10" rx="5" fill="#e2e8f0"/>
  <rect x="330" y="395" width="45" height="10" rx="5" fill="#f59e0b"/>
  
  <rect x="460" y="370" width="180" height="60" fill="#ffffff" stroke="#e2e8f0" stroke-width="1"/>
  <rect x="510" y="395" width="80" height="10" rx="5" fill="#e2e8f0"/>
  <rect x="510" y="395" width="60" height="10" rx="5" fill="#f59e0b"/>
  
  <rect x="640" y="370" width="180" height="60" fill="#ffffff" stroke="#e2e8f0" stroke-width="1"/>
  <rect x="690" y="395" width="80" height="10" rx="5" fill="#e2e8f0"/>
  <rect x="690" y="395" width="25" height="10" rx="5" fill="#10b981"/>
  
  <rect x="820" y="370" width="180" height="60" fill="#ffffff" stroke="#e2e8f0" stroke-width="1"/>
  <rect x="870" y="395" width="80" height="10" rx="5" fill="#e2e8f0"/>
  <rect x="870" y="395" width="55" height="10" rx="5" fill="#f59e0b"/>
  </g>
</svg>
