<svg xmlns="http://www.w3.org/2000/svg" viewBox="0 0 720 640" role="img" aria-label="Capstone integrates four modules">
  <rect width="720" height="640" fill="#0b1f33"/>
  <circle cx="620" cy="80" r="120" fill="#049FD9" opacity="0.07"/>
  <circle cx="90" cy="560" r="130" fill="#6CC04A" opacity="0.06"/>
  <g id="viz-main">
    <rect x="24" y="24" width="672" height="592" rx="24" fill="#0b1728" stroke="#203a56" stroke-width="1.5"/>
    
    
    <text x="48" y="58" fill="#049FD9" font-family="Inter,Segoe UI,Arial,sans-serif" font-size="11" font-weight="800" letter-spacing="0.14em">INTEGRATE</text>
    <text x="48" y="84" fill="#f8fafc" font-family="Inter,Segoe UI,Arial,sans-serif" font-size="14" font-weight="800">Four course 3 modules in one story</text>
    
    <g id="viz-m1"><rect x="48" y="150" width="150" height="56" rx="10" fill="#081827" stroke="#12b5e5" stroke-width="2"/>
      <text x="123" y="184" fill="#12b5e5" font-family="Inter,Segoe UI,Arial,sans-serif" font-size="10" font-weight="700" text-anchor="middle">Telemetry</text></g>
    <g id="viz-m2"><rect x="210" y="150" width="150" height="56" rx="10" fill="#081827" stroke="#6CC04A" stroke-width="2"/>
      <text x="285" y="184" fill="#6CC04A" font-family="Inter,Segoe UI,Arial,sans-serif" font-size="10" font-weight="700" text-anchor="middle">Logging</text></g>
    <g id="viz-m3"><rect x="372" y="150" width="150" height="56" rx="10" fill="#081827" stroke="#f59e0b" stroke-width="2"/>
      <text x="447" y="184" fill="#f59e0b" font-family="Inter,Segoe UI,Arial,sans-serif" font-size="10" font-weight="700" text-anchor="middle">Validation</text></g>
    <g id="viz-m4"><rect x="534" y="150" width="150" height="56" rx="10" fill="#081827" stroke="#a78bfa" stroke-width="2"/>
      <text x="609" y="184" fill="#a78bfa" font-family="Inter,Segoe UI,Arial,sans-serif" font-size="10" font-weight="700" text-anchor="middle">Security</text></g>
    <line x1="123" y1="206" x2="123" y2="250" stroke="#049FD9" stroke-width="3" stroke-linecap="round"/>
    <line x1="285" y1="206" x2="285" y2="250" stroke="#049FD9" stroke-width="3" stroke-linecap="round"/>
    <line x1="447" y1="206" x2="447" y2="250" stroke="#049FD9" stroke-width="3" stroke-linecap="round"/>
    <line x1="609" y1="206" x2="609" y2="250" stroke="#049FD9" stroke-width="3" stroke-linecap="round"/>
    <g id="viz-cap"><rect x="180" y="250" width="360" height="72" rx="14" fill="#112115" stroke="#6CC04A" stroke-width="2"/>
      <text x="360" y="292" fill="#6CC04A" font-family="Inter,Segoe UI,Arial,sans-serif" font-size="13" font-weight="800" text-anchor="middle">Ops capstone pipeline</text></g>
  </g>
</svg>
