<svg xmlns="http://www.w3.org/2000/svg" viewBox="0 0 720 640" role="img" aria-label="RESTCONF path anatomy">
  <rect width="720" height="640" fill="#0b1f33"/>
  <circle cx="620" cy="80" r="120" fill="#049FD9" opacity="0.07"/>
  <circle cx="90" cy="560" r="130" fill="#6CC04A" opacity="0.06"/>
  <g id="viz-main">
    <rect x="24" y="24" width="672" height="592" rx="24" fill="#0b1728" stroke="#203a56" stroke-width="1.5"/>
    
    <g id="viz-path">
      <rect x="60" y="100" width="600" height="56" rx="12" fill="#020617" stroke="#203a56" stroke-width="1.5"/>
      <text x="80" y="134" fill="#64748b" font-family="monospace" font-size="10">/restconf/data</text>
      <text x="220" y="134" fill="#12b5e5" font-family="monospace" font-size="10">/Cisco-IOS-XE-native:native</text>
      <text x="480" y="134" fill="#6CC04A" font-family="monospace" font-size="10">/vlan</text>
    </g>
    <g id="viz-get-flow">
      <g>
    <rect x="100" y="200" width="56" height="32" rx="8" fill="#0b2237" stroke="#6CC04A" stroke-width="2"/>
    <text x="128" y="221" fill="#6CC04A" font-family="monospace" font-size="12" font-weight="700" text-anchor="middle">GET</text>
  </g>
      <line x1="168" y1="216" x2="240" y2="216" stroke="#049FD9" stroke-width="3" stroke-linecap="round"/>
      <rect x="240" y="196" width="200" height="40" rx="8" fill="#081827" stroke="#6CC04A" stroke-width="1.5"/>
      <text x="340" y="222" fill="#9fb3c8" font-family="monospace" font-size="9" text-anchor="middle">.../vlan-list=100</text>
      <line x1="440" y1="216" x2="500" y2="216" stroke="#049FD9" stroke-width="3" stroke-linecap="round"/>
      <text x="540" y="222" fill="#6CC04A" font-family="monospace" font-size="11" text-anchor="middle">JSON</text>
    </g>
    <g id="viz-patch-flow">
      <g>
    <rect x="100" y="280" width="65" height="32" rx="8" fill="#0b2237" stroke="#f59e0b" stroke-width="2"/>
    <text x="132.5" y="301" fill="#f59e0b" font-family="monospace" font-size="12" font-weight="700" text-anchor="middle">PATCH</text>
  </g>
      <line x1="188" y1="296" x2="240" y2="296" stroke="#049FD9" stroke-width="3" stroke-linecap="round"/>
      <rect x="240" y="276" width="200" height="40" rx="8" fill="#081827" stroke="#f59e0b" stroke-width="1.5"/>
      <text x="340" y="302" fill="#9fb3c8" font-family="monospace" font-size="9" text-anchor="middle">.../vlan + body</text>
      <line x1="440" y1="296" x2="500" y2="296" stroke="#049FD9" stroke-width="3" stroke-linecap="round"/>
      <text x="540" y="302" fill="#f59e0b" font-family="monospace" font-size="11" text-anchor="middle">204</text>
    </g>
    <g id="viz-headers">
      <rect x="120" y="350" width="480" height="52" rx="10" fill="#112115" stroke="#a78bfa" stroke-width="2"/>
      <text x="360" y="372" fill="#a78bfa" font-family="monospace" font-size="10" text-anchor="middle">Accept: application/yang-data+json</text>
      <text x="360" y="390" fill="#a78bfa" font-family="monospace" font-size="10" text-anchor="middle">Content-Type: application/yang-data+json</text>
    </g>
  </g>
</svg>
