<svg xmlns="http://www.w3.org/2000/svg" viewBox="0 0 720 640" role="img" aria-label="Leaf, container, and list">
  <rect width="720" height="640" fill="#0b1f33"/>
  <circle cx="620" cy="80" r="120" fill="#049FD9" opacity="0.07"/>
  <circle cx="90" cy="560" r="130" fill="#6CC04A" opacity="0.06"/>
  <g id="viz-main">
    <rect x="24" y="24" width="672" height="592" rx="24" fill="#0b1728" stroke="#203a56" stroke-width="1.5"/>
    
    <g id="viz-tree">
      <rect x="240" y="80" width="160" height="48" rx="10" fill="#081827" stroke="#12b5e5" stroke-width="2"/>
      <text x="320" y="110" fill="#12b5e5" font-family="Inter,Segoe UI,Arial,sans-serif" font-size="12" font-weight="700" text-anchor="middle">native (root)</text>
      <line x1="320" y1="128" x2="320" y2="150" stroke="#049FD9" stroke-width="3" stroke-linecap="round"/>
      <rect x="200" y="150" width="120" height="44" rx="8" fill="#081827" stroke="#f59e0b" stroke-width="2"/>
      <text x="260" y="178" fill="#f59e0b" font-family="Inter,Segoe UI,Arial,sans-serif" font-size="11" font-weight="700" text-anchor="middle">container</text>
      <line x1="260" y1="194" x2="260" y2="216" stroke="#049FD9" stroke-width="3" stroke-linecap="round"/>
      <rect x="160" y="216" width="100" height="36" rx="6" fill="#112115" stroke="#6CC04A" stroke-width="1.5"/>
      <text x="210" y="239" fill="#6CC04A" font-family="monospace" font-size="10" text-anchor="middle">leaf: id=100</text>
      <line x1="320" y1="194" x2="380" y2="216" stroke="#049FD9" stroke-width="3" stroke-linecap="round"/>
      <rect x="340" y="216" width="120" height="80" rx="8" fill="#081827" stroke="#a78bfa" stroke-width="2"/>
      <text x="400" y="240" fill="#a78bfa" font-family="Inter,Segoe UI,Arial,sans-serif" font-size="11" font-weight="700" text-anchor="middle">list</text>
      <text x="400" y="262" fill="#9fb3c8" font-family="monospace" font-size="9" text-anchor="middle">vlan 100</text>
      <text x="400" y="278" fill="#9fb3c8" font-family="monospace" font-size="9" text-anchor="middle">vlan 200</text>
    </g>
    <g id="viz-ccna">
      <rect x="100" y="330" width="472" height="56" rx="12" fill="#0b2237" stroke="#ef4444" stroke-width="1.5"/>
      <text x="336" y="354" fill="#ef4444" font-family="Inter,Segoe UI,Arial,sans-serif" font-size="11" font-weight="700" text-anchor="middle">Validation error = missing leaf or bad value</text>
      <text x="336" y="374" fill="#9fb3c8" font-family="Inter,Segoe UI,Arial,sans-serif" font-size="10" text-anchor="middle">Read the message instead of guessing</text>
    </g>
  </g>
</svg>
