<svg xmlns="http://www.w3.org/2000/svg" viewBox="0 0 720 640" role="img" aria-label="Capstone Lab Setup">
  <rect width="720" height="640" fill="#0b1f33"/>
  <circle cx="620" cy="80" r="120" fill="#049FD9" opacity="0.07"/>
  <circle cx="90" cy="560" r="130" fill="#6CC04A" opacity="0.06"/>
  <g id="viz-main">
    <rect x="24" y="24" width="672" height="592" rx="24" fill="#0b1728" stroke="#203a56" stroke-width="1.5"/>
    
    
    <text x="48" y="58" fill="#049FD9" font-family="Inter,Segoe UI,Arial,sans-serif" font-size="11" font-weight="800" letter-spacing="0.14em">LAB</text>
    <text x="48" y="84" fill="#f8fafc" font-family="Inter,Segoe UI,Arial,sans-serif" font-size="14" font-weight="800">Capstone Lab Setup</text>
    
    <g id="viz-folder">
      <rect x="56" y="120" width="220" height="200" rx="14" fill="#081827" stroke="#203a56" stroke-width="1.5"/>
      <text x="80" y="148" fill="#12b5e5" font-family="monospace" font-size="12" font-weight="700">netops_ai_lab//</text>
      <text x="120" y="158" fill="#9fb3c8" font-family="monospace" font-size="11">mcp/server.py</text><text x="120" y="180" fill="#9fb3c8" font-family="monospace" font-size="11">agent/agent.py</text><text x="120" y="202" fill="#9fb3c8" font-family="monospace" font-size="11">benchmarks/golden_qa.jsonl</text>
    </g>
    <g id="viz-terminal">
      <rect x="320" y="120" width="340" height="200" rx="12" fill="#020617" stroke="#12b5e5" stroke-width="2"/>
      <circle cx="344" cy="142" r="5" fill="#ef4444"/><circle cx="360" cy="142" r="5" fill="#f59e0b"/><circle cx="376" cy="142" r="5" fill="#6CC04A"/>
      <rect x="336" y="152" width="308" height="120" rx="10" fill="#020617" stroke="#35536f" stroke-width="1.5"/><text x="352" y="176" fill="#6CC04A" font-family="monospace" font-size="9">$ python mcp/server.py &</text><text x="352" y="194" fill="#6CC04A" font-family="monospace" font-size="9">$ tail -f reviews/review.log  # approvals</text><text x="352" y="212" fill="#6CC04A" font-family="monospace" font-size="9">$ python benchmarks/run_eval.py</text>
    </g>
    <g id="viz-check">
      <circle cx="360" cy="360" r="22" fill="#112115" stroke="#6CC04A" stroke-width="2"/>
      <path d="M350 360l6 6 14-16" fill="none" stroke="#6CC04A" stroke-width="3" stroke-linecap="round"/>
    </g>
  </g>
</svg>
