<svg xmlns="http://www.w3.org/2000/svg" viewBox="0 0 720 640" role="img" aria-label="Model-driven telemetry contract">
  <rect width="720" height="640" fill="#0b1f33"/>
  <circle cx="620" cy="80" r="120" fill="#049FD9" opacity="0.07"/>
  <circle cx="90" cy="560" r="130" fill="#6CC04A" opacity="0.06"/>
  <g id="viz-main">
    <rect x="24" y="24" width="672" height="592" rx="24" fill="#0b1728" stroke="#203a56" stroke-width="1.5"/>
    
    
    <text x="48" y="58" fill="#049FD9" font-family="Inter,Segoe UI,Arial,sans-serif" font-size="11" font-weight="800" letter-spacing="0.14em">CONCEPT</text>
    <text x="48" y="84" fill="#f8fafc" font-family="Inter,Segoe UI,Arial,sans-serif" font-size="14" font-weight="800">MDT = YANG-modeled data contract</text>
    
    <g id="viz-device"><g id="viz-router">
    <rect x="116" y="190" width="88" height="60" rx="12" fill="#081827" stroke="#12b5e5" stroke-width="2"/>
    <path d="M142 234h36M160 214v36" stroke="#12b5e5" stroke-width="2" stroke-linecap="round"/>
    <text x="160" y="268" fill="#9fb3c8" font-family="Inter,Segoe UI,Arial,sans-serif" font-size="10" text-anchor="middle">IOS-XE</text>
  </g></g>
    <line id="viz-arrow" x1="204" y1="220" x2="280" y2="220" stroke="#049FD9" stroke-width="3" stroke-linecap="round"/>
    <g id="viz-model">
      <rect x="280" y="150" width="200" height="140" rx="14" fill="#112115" stroke="#6CC04A" stroke-width="2"/>
      <text x="380" y="180" fill="#6CC04A" font-family="Inter,Segoe UI,Arial,sans-serif" font-size="11" font-weight="800" text-anchor="middle">YANG model</text>
      <rect x="296" y="192" width="168" height="72" rx="10" fill="#020617" stroke="#35536f" stroke-width="1.5"/><text x="312" y="216" fill="#9fb3c8" font-family="monospace" font-size="9">interfaces-state/</text><text x="312" y="234" fill="#9fb3c8" font-family="monospace" font-size="9">  interface/statistics</text><text x="312" y="252" fill="#9fb3c8" font-family="monospace" font-size="9">typed counters</text>
    </g>
    <line x1="480" y1="220" x2="556" y2="220" stroke="#049FD9" stroke-width="3" stroke-linecap="round"/>
    <g id="viz-consumer"><g>
    <rect x="548" y="186" width="104" height="68" rx="12" fill="#0b2237" stroke="#6CC04A" stroke-width="2"/>
    <rect x="564" y="204" width="72" height="32" rx="6" fill="#112115" stroke="#35536f"/>
    <text x="600" y="272" fill="#6CC04A" font-family="Inter,Segoe UI,Arial,sans-serif" font-size="10" font-weight="700" text-anchor="middle">Collector</text>
  </g></g>
    <text x="360" y="340" fill="#64748b" font-family="Inter,Segoe UI,Arial,sans-serif" font-size="11" text-anchor="middle">Model is the contract — not hand-parsed text</text>
  </g>
</svg>
